<?xml version="1.0" encoding="utf-8"?>
<!-- Generator: Adobe Illustrator 25.3.1, SVG Export Plug-In . SVG Version: 6.00 Build 0)  -->
<svg version="1.1" id="Layer_1" xmlns="http://www.w3.org/2000/svg" xmlns:xlink="http://www.w3.org/1999/xlink" x="0px" y="0px"
	 viewBox="0 0 250 250" style="enable-background:new 0 0 250 250;" xml:space="preserve">
<style type="text/css">
	.st0{fill:#C7AE86;}
</style>
<g>
	<path class="st0" d="M59.9,84.9c3.6,1.1,5.8-2.7,8.6-4.6c0,0.9,0,1.7,0,2.6c0,0.3,0,0.6,0,0.9c0,0.2,0,0.5,0,0.7c0,0.3,0,0.5,0,0.8
		c0.1,5.9-1.3,11.6-2.4,17.2c-0.1,0.3-0.1,0.7-0.2,1c-0.5,3.1-1.1,6.6-1.4,9.7c0,0.3,0,0.6,0,1c0,0.3,0,0.6,0,1
		c0,0.2,0.1,0.5,0.2,0.7c0.1,0.5,0.4,0.9,0.7,1.4c1.2-1.9,2.5-3.7,4.2-4.9c0.2-0.2,0.5-0.4,0.8-0.5c0.3-0.2,0.5-0.4,0.8-0.5
		c4.2-2.5,9.5-2.8,13.5,1.2c7.5,7.2,14.4,15.6,24.2,18.6c2.6,0.8,5.2,1.2,8,1.2c2.7,0,5.6-0.4,8.4-1.4c-2-3-4.6-5.3-7.5-7.3
		c-2.9-1.9-6.1-3.4-9.3-4.9c-2.2-0.9-4.1-2.1-6.2-3c3.7-1.3,6.8,1.5,9.9,3.1c2.3,1.3,4.6,2.8,7,4.1c9.5,5.4,19.5,9.4,27.4-0.1
		c-1.9,0-4.1-0.6-5.9-0.3c1.8-0.5,3.5-1.4,5.1-2.4c1.6-1,3-2.3,4.2-3.8c2.9-3.5,4.5-8.8,2.3-12.9c-1.6,1.2-3.7,0.9-5.5,2.1
		c-1.8,0.8-3.7,1.5-5.5,2.3c-7.4,3.1-15,6.2-22.7,6.9c-2.9,0.3-5.7,0.2-8.6-0.3c-2.9-0.5-5.7-1.4-8.5-2.9c2.5,0.1,5.2,0.2,8,0.3
		c2.8,0.1,5.6,0.1,8.4-0.1c8.4-0.4,16.8-2.1,23.5-6.7c2.2-1.6,4.2-3.4,6-5.7c5.6-6.6,4.7-18.2-4.4-21.8c-1.9-0.9-4.2-1.8-6.4-2.2
		c-2.2-0.3-4.3,0-5.7,1.7c-1.4,1.6-1.5,3.5-1.1,5.6s1.2,4.3,1.7,6.3c0.6,3.1,0,5.9-2.2,8.1c1.3-2,1.5-4.5,0.9-6.7
		c-0.6-2.2-2.1-4.1-4.3-4.8c-4.1-1.6-8.1-1.2-12.2-0.3c1.4,1.6,2.4,3.5,2.9,5.5c1.8,5.1,0.2,10.4-3.6,14.2c-1.7,1.6-3.8,2.5-6.1,2.9
		c-2.5,0.4-5,0.5-7.4,0.1c-9-1.2-16.5-7.1-21-14.8c-1.5-2.6-2.6-5.3-3.3-8.2c-1.5-5.7-1.4-11.9,0.7-17.7c1.1-3.5,2.6-6.8,4.6-9.9
		c2-3.1,4.4-5.9,7.3-8.4c2.2-1.6,3.7-3.4,6.2-4.4c-0.3,0.9-0.3,1.9-0.9,2.5c-3.9,2.7-7.3,6-10,9.7c-1.4,1.9-2.5,3.8-3.5,5.9
		C74,73,74.6,85.7,82,94.6c1.5,1.8,3.2,3.4,5.3,4.8c1.9,1.1,3.7,2,5.5,2.8c1.8,0.7,3.7,1.3,5.7,1.6c1.9,0,3.7,0,5.6,0
		c1.9-0.3,4.1-0.6,5.6-2.1c1.3-1.2,2-2.8,1.6-5.1c-0.5-2-2.6-3.4-5.1-4.8c-2.5-1.3-5.5-2.5-7.7-4.2c-4.4-2.9-7.9-7-8.8-12.3
		c2.2,3.1,5,5.6,8,8.1c3.1,2.1,6.6,3,9.8,0.4c0.9-0.6-0.3-2.8-0.9-4.1c-6.2-10.9-17.8-25.9-5.9-36.9c1.2-0.9,2.2-2.2,4.1-2.2
		c-9.1,9.4-8.1,27.8,4.7,32.5c2.5,0.6,6.6-1.9,5.9-4.7c-0.9-5.9-2.8-11.9-1.5-17.9c0.6-2.8,1.7-5.6,3-8.1c0.7-1.3,1.4-2.5,2.3-3.7
		c0.8-1.2,1.8-2.3,2.8-3.4c-1.4-0.1-2.9,0-4.3,0.1c-1.4,0.1-2.8,0.3-4.3,0.4c-1.7,0.2-3.4,0.4-5.1,0.7c-4.6,0.8-9.1,2.1-13.4,3.7
		c-6.8,2.6-13.8,6.6-19.6,11.7c-2,1.7-3.8,3.5-5.5,5.4C63.2,65,58.9,74.7,59.9,84.9"/>
	<path class="st0" d="M152.6,31.3c2.6,1.8,5.7,2.7,8.1,4.4c0.9,0.5,1.8,1,2.8,1.5c1.8,1,3.6,2,5.4,3c1,0.7,2.1,1.4,3,2.1
		c1.1,0.7,2.3,1.5,3.5,2.2c1.2,0.8,2.3,1.5,3.5,2.3c0-7.5-1.9-15-6.5-21c-0.9-1.2-1.9-2.3-2.9-3.3c-2.4-2.3-5.2-4.2-8.3-5.5
		c-1-0.4-2.1-0.8-3.2-1.1c0.3,2.5,1.9,4.4,3,6.2c0.7,0.9,1.5,1.8,2.2,2.7c0.8,0.9,1.5,1.7,2.2,2.6c-1.2-0.7-2.3-1.5-3.5-2.2
		c-9-7.1-19.3-14-31.5-14.6c-1.1-0.1-2.3-0.3-3.4-0.4c-2.3-0.2-4.6-0.4-6.9-0.6c0.8,1,1.7,2.1,2.6,3.1c0.9,1,1.8,2,2.8,2.9
		C133.2,22.5,142.9,27.5,152.6,31.3"/>
	<path class="st0" d="M201,77.3c-0.6-0.8-1.6-0.8-1.6-0.4c-12.8,18.4-19.4,39.1-35.9,53.3c-2,1.7-4.2,3.2-6.6,4.5
		c1.2-1.4,2.5-2.8,3.7-4.2c1.2-1.4,2.4-2.8,3.6-4.2c16.8-19.4,32.4-42.2,34.6-68.7c-1.6,1.2-3.7,1.6-5.6,2.2
		c1.6-2.2,2.5-4.7,3.2-7.2c0.6-2.5,0.9-5.2,0.9-7.8c0-2.7-0.3-5.3-0.9-7.8c-0.9,1.2-1.6,3.1-3.1,3.7c-0.9-10-8.1-19.7-18.4-21.9
		c0.5,7.7,3.9,14.8,5.5,22.1c0.5,2.4,0.8,4.9,0.8,7.5c0,1-0.1,1.9-0.3,2.9c-2-1.6-4-3.1-6.1-4.6c-1-0.7-2.1-1.4-3.2-2.1
		c-1.1-0.8-2.3-1.6-3.5-2.3c-1.1-0.6-2.1-1.2-3.2-1.7c-1.1-0.6-2.2-1.1-3.3-1.7c-13.3-7-26.7-13.2-40.6-18.6
		c-1.5-0.6-2.9-1.2-4.4-1.8c-7.3-2.8-14.8-4.4-22.6-2.6c-1.3,0.4-2.6,0.9-3.9,1.6c-1.3,0.7-2.6,1.6-3.8,2.6c-0.8,0.6-1.5,1.3-2.2,2
		c0.9,0.2,1.9,0.4,2.9,0.5c3.5,0.1,7.3,0.3,10.6,1.9c1.1,0.5,2.1,1.2,3.1,2c-1.1-0.2-2.2-0.3-3.3-0.4c-3.4-0.3-6.8-0.2-10.1,0
		c-1.5,0.1-3,0.3-4.5,0.6c-5.9,1-11.4,3.3-15.2,7.3c-2.6,2.6-4.4,6-5.1,10.3c0,2.5,0,6.9,0.9,6.9c9.4-0.6,18.1-6.6,27.3-10.4
		c3-1.3,6-2.6,9-3.7c1.3-0.5,2.5-1,3.8-1.4c1.2-0.4,2.4-0.8,3.7-1.2c2.3-0.6,4.5-1.2,6.8-1.7c1.1-0.3,2.3-0.5,3.4-0.8
		c7-1.6,14.2-1.9,21.3-0.7c-6.9,1.9-14.4,5.3-18.5,11.6c-0.6,0.9-1.1,1.8-1.5,2.8c-1.2,2.9-1.5,6.1-0.3,9.4c1.6,3.4,5.3,0.9,7.8,0
		c-0.6,5.9,4.1,11.2,10,11.9c2.2,0.3,3.7-0.9,5.6-1.2c-1-1.9-1.6-4-1.7-6.2c-0.1-2.2,0.3-4.4,1.2-6.3c2.9-6.2,11-8.4,17.2-8.4
		c1,0,2,0,3.1,0.1c1,0.1,2,0.3,3,0.5c1.5,0.3,3,0.7,4.4,1.2c0.9,0.4,1.7,0.8,2.6,1.2c2.5,1.3,5,2.9,7.1,5
		c7.5,8.1,12.5,20.9,7.5,31.6c1.2-13.4-4.7-28.4-17.7-33.7c-1.4-0.6-3-1-4.6-1.3c-1.3-0.3-2.6-0.4-3.9-0.4c-1.3,0-2.7,0.1-4,0.4
		c-1.3,0.3-2.6,0.6-3.8,1.1c-1.2,0.5-2.4,1.1-3.6,1.8c-1.1,0.8-2.1,1.8-2.8,3c-0.1,0.2-0.2,0.4-0.3,0.6c-0.1,0.2-0.2,0.4-0.2,0.7
		c-0.3,2.2,0,4.1,1.2,5.9c1.6,2.2,4,3.7,6,5.4c2.4,1.5,3.7,4,3.7,6.8c6.9-3.4,15.6-1.2,20.3,5c2.8,3.7,4.1,8.4,3.4,13.1
		c-0.6,4.7-2.2,8.7-4.4,12.8c1.9-8.1,3.1-20.9-7.5-23.1c-1.9-0.3-3.7-0.3-5.6,0.6c-1.2,0.3-1.6,1.6-2.2,2.2c-0.6,1.9,0.3,3.7,1.6,5
		c2.5,2.2,6.2,5.3,5,9.1c-1.9-1.9-3.4-3.7-5.9-4.7c-1.2,9.4-2.5,19.1-6.6,27.7c-1,1.8-2.1,3.5-3.3,5.1s-2.6,3.1-4.1,4.4
		c-2,1.8-4.2,3.4-6.5,4.7c-1.7,1-3.6,1.9-5.5,2.5c-1,0.3-1.9,0.6-2.9,0.9c-1,0.2-2,0.4-3,0.6c-1.7,0.3-3.4,0.4-5,0.4
		c-0.8,0-1.7,0-2.5-0.1c-6.1-0.8-12.4-2.1-17.6-5.4c-0.6-0.4-1.3-0.8-1.9-1.2c-0.6-0.4-1.2-0.9-1.8-1.3c-0.8-0.6-1.5-1.2-2.3-1.8
		c-1.7-1.5-3.4-3.1-5-4.8c-0.2-0.2-0.5-0.5-0.7-0.7c-2.1-2.1-4.3-4.3-6.1-6.7c-0.2-0.2-0.5-0.5-0.7-0.7c-1.6-1.6-3.5-2.6-5.4-3
		c-0.3-0.1-0.6-0.1-0.8-0.1c-1.6-0.2-3,0-4.4,0.6c-0.3,0.1-0.5,0.3-0.8,0.4c-0.3,0.2-0.6,0.4-0.9,0.6c-0.2,0.1-0.4,0.3-0.6,0.4
		c-0.2,0.2-0.4,0.3-0.6,0.5c-0.2,0.2-0.4,0.4-0.6,0.7c-1.3,1.8-2.5,4.6-0.9,6.8c0.6-1.6,1.6-3.1,3.3-3.9c0.3-0.1,0.5-0.3,0.8-0.4
		c1.1-0.4,2.4-0.6,3.6-0.5c0.2,0,0.5,0.1,0.7,0.1c0.9,0.2,1.8,0.7,2.6,1.2c0.2,0.2,0.4,0.3,0.7,0.5c2.1,2.2,3.6,5,3.3,8.1
		c0,0.2-0.1,0.4-0.1,0.6c-0.1,0.4-0.2,0.8-0.3,1.2c-0.1,0.3-0.2,0.5-0.3,0.8c-1.2,3-4,4.6-6.8,6.2c-0.2,0.1-0.5,0.2-0.7,0.3
		c-0.5,0.2-1,0.4-1.5,0.6c-0.3,0.1-0.6,0.2-0.9,0.3c-2.5,0.4-5.3,1-7.9,0.8c-0.2,0-0.5-0.1-0.7-0.1c-0.6-0.1-1.1-0.2-1.7-0.3
		c-0.9-0.2-1.8-0.4-2.8-0.6c0.3,4.7-4.7,7.2-8.7,7.8c8.6,3.2,19,2.8,27.1-1.4c0.9-0.5,1.8-1,2.6-1.5c3.4-2.1,6.5-5.2,8.3-9
		c0.5,0.7,1.1,1.4,1.8,2c0.6,0.6,1.2,1.2,1.8,1.7s1.2,1.1,1.9,1.6c7.4,5.3,15.5,9.7,24.5,10.6c0.8,0.1,1.6,0.2,2.5,0.3
		c2.5,0.3,4.9,0.4,7.4,0.6c0.9,0.1,1.7,0.1,2.6,0.1c4.3,0.2,8.7-0.1,13-0.6c2.7-0.3,5.4-0.8,8-1.4c0.9-0.2,1.8-0.4,2.6-0.6
		c0.4-0.1,0.7-0.2,1.1-0.4c0.4-0.1,0.8-0.2,1.1-0.3c3-0.4,6.1-1.4,8.9-2.5c0.6-0.2,1.1-0.4,1.7-0.5c1.2-0.3,2.4-0.7,3.6-1
		c0.3-0.1,0.6-0.2,0.9-0.3c1.8-0.6,3.6-1.3,5.3-2.2c0.3-0.1,0.5-0.2,0.7-0.3c0.5-0.2,1-0.4,1.5-0.6c0.3-0.1,0.5-0.2,0.8-0.4
		c0.6-0.3,1.1-0.6,1.7-0.9c0.2-0.1,0.4-0.2,0.5-0.4c0.5-0.4,1.1-0.7,1.4-1.4c-1.2,0-2.5,0-3.8,0c-0.3,0-0.6,0-0.9,0
		c-0.3,0-0.6,0-0.9,0c-0.3,0-0.6,0-0.9,0c-1.4,0-2.8,0-4.2,0c-0.2,0-0.3-0.2-0.4-0.4c-0.1-0.2-0.1-0.4,0.1-0.6
		c0.8-0.6,1.8-0.8,2.7-1c0.3,0,0.7-0.1,1-0.1c0.5,0,0.9,0,1.4,0c0.2,0,0.5,0,0.7,0c2.3,0.2,4.2-0.3,6.1-1c10-3.5,11.8-16.3,9-25.1
		c-6.9,8.1-15.6,15.6-26.6,17.8c8.7-7.5,21.9-11.9,24.7-24.1c-0.3,0-0.9,0-1.2-0.3C200.4,97.5,201,86.6,201,77.3"/>
</g>
<path class="st0" d="M105,181.2c-0.5,0-1-0.1-1.5-0.1l-0.9-0.1c0,0-0.1,0-0.1,0l-0.1,0l-4.2,0l-0.1,0c-0.1,0-0.1,0-0.2,0
	c-4.1,0.1-7.5,1.1-10.5,3c-2.6,1.7-4.7,3.8-6.2,6.3c-0.5,0.8-0.8,1.7-1.1,2.5l-0.2,0.5c-0.6,1.7-1,2.9-1.2,4.5
	c-0.3,1.8-0.3,3.6-0.3,5l0,0.8c0,1.1,0,2.3,0,3.4c0,1.2-0.1,2.4-0.2,3.5l0,0.5c0,0.6-0.1,1.3-0.2,1.9l-0.1,1c0,0.4-0.2,0.7-0.6,0.9
	c-0.2,0.1-0.5,0.4-0.6,0.8l0,0.2l0.1,0.1c0,0,0.1,0.1,0.1,0.2c0.1,0.2,0.3,0.4,0.5,0.4c0.4,0.1,0.9,0.2,1.4,0.2c0.1,0,0.3,0,0.4,0
	c0.7-0.1,1.4-0.2,2.1-0.3c0.3-0.1,0.6-0.1,0.9-0.2c0.9-0.1,1.6-0.9,1.6-1.8c0-0.3,0-0.7-0.1-1c0-0.2,0-0.5-0.1-0.7l-0.1-1.1
	c-0.1-1-0.1-2.1-0.1-3.1c0-1.6,0-3.3,0-4.8l0-1.6c0-0.4,0-0.9,0.1-1.3c0-0.5,0.1-0.9,0.1-1.4c0.1-0.7,0.1-1.5,0.2-2.2
	c0.1-1.1,0.2-1.9,0.6-3.1c1.4-4.2,4.2-7.2,8.5-8.8c2-0.7,4.2-1,6.7-0.6c0.6,0.1,0.8,0.5,0.9,0.8c0.1,0.3,0,0.6-0.2,0.9
	c-0.6,1.3-0.8,2.7-0.8,4.3c0,0.7,0,1.5,0,2.2c0,0.7,0,1.3,0,2c0,0.8,0,1.4,0,2.1l0,0.8c0,0.3-0.1,0.3-0.3,0.3
	c-0.7,0.1-1.3,0.1-1.8,0.1c-0.8,0-1.6,0-2.5,0l-0.4,0c-0.4,0-0.7,0-1-0.1c-0.8-0.1-1.4,0.1-1.8,0.9l-0.1,0.1c-0.6,1-1.3,2.2-2.5,2.9
	c-0.2,0.1-0.4,0.4-0.3,0.9c0.1,0.4,0.5,0.5,0.8,0.4c0.4-0.1,0.8-0.2,1.2-0.4c0.9-0.4,1.8-0.8,2.9-0.8c1.4,0.1,2.8,0.1,4.1,0
	c0.5,0,1,0,1.5,0c0,0,0,0,0,0c0,0,0.1,0,0.1,0c0,0,0,0,0,0.1c0,0.5,0,1.1,0,1.6l0,1.9c0,1.3,0,2.5,0.1,3.8c0,0.8,0,1.5,0,2.3
	c0,0.6,0,1.2,0,1.8c0,0.2,0,0.2-0.1,0.2c-0.1,0-0.2,0.1-0.3,0.2c-0.3,0.3-0.8,0.7-0.8,1.4c0,0.4,0.2,0.6,0.3,0.7
	c0.2,0.1,0.5,0.1,0.7,0c0,0,0.1,0,0.1,0l0.2,0.1c0.4,0.2,0.9,0.3,1.3,0.5c0.3,0.2,0.8,0.3,1.3-0.1c0.7-0.4,1.2-0.9,1.6-1.5
	c0.4-0.6,0.8-1.2,0.7-2c0-0.5-0.1-1-0.1-1.5c0-0.4,0-0.7-0.1-1.1c-0.1-2.2-0.3-4.4-0.4-6.6c0-0.9-0.1-1.7-0.1-2.6
	c0-1.2-0.1-2.4-0.1-3.6l0-0.2c0-1.1-0.1-1.9-0.1-3c0-1.1,0-2.2,0-3.3c0-0.9,0-1.8,0.1-2.7c0-1,0-2.1,0.1-3.1c0-1,0.4-1.8,1.2-2.4
	c0.4-0.3,0.5-0.6,0.5-0.9C105.8,181.6,105.5,181.3,105,181.2z"/>
<path class="st0" d="M242.9,184.8c0.3-0.8,0.8-1.3,1.6-1.5c0.5-0.1,0.9-0.4,1-1c0-0.2,0-0.5-0.2-0.6l-0.1-0.1
	c-0.3-0.2-0.6-0.4-1-0.4c-0.8,0-1.6-0.2-2.5-0.7c-0.2-0.1-0.6-0.2-0.9-0.2c-1.1,0.3-1.8,1-2.1,1.9c-0.5,1.6-0.8,3.3-0.9,5.3
	c-0.1,1,0,2.1,0,3.1c0,0.4,0,0.7,0,1.1l-0.1-0.1c-0.4-0.5-0.8-1-1.1-1.5c-1.8-2.2-4-4.1-6.6-5.8c-1.7-1.1-3.9-2.4-6.4-3.2
	c-0.8-0.3-1.7-0.5-2.5-0.8l-0.6-0.2c-0.2-0.1-0.4-0.1-0.5-0.1c-0.1,0-0.1,0-0.2,0l0,0l-0.3,0l-0.3,0.1c-0.3,0-0.5,0.1-0.8,0.1
	c-0.2,0-0.3,0.1-0.5,0.1l-0.2,0.1c-0.4,0.1-0.7,0.4-0.9,0.7l0,0.4l0,0.1c0.1,0.4,0.4,0.6,0.9,0.8c0,0,0.1,0.1,0.1,0.2
	c0.1,0.5,0.1,0.9,0.1,1.5c0,0.5,0,1,0.1,1.5c0,0.5,0,0.9,0.1,1.4l0.2,4.6c0.1,1.2,0.1,2.4,0.2,3.7c0.1,1.4,0.1,2.7,0.2,4.1l0,0.7
	c0,0.8,0.1,1.7,0.1,2.5c0,1.1,0,2.2,0.1,3.2c0,1.4,0,2.7,0.1,4.1c0,0.4,0,0.9,0.1,1.3c0,0.4,0.1,0.8,0.1,1.2c0,0.8-0.3,1.7-0.9,1.9
	c-0.1,0-0.2,0.1-0.3,0.1c0,0,0,0,0,0c-0.5,0-0.8,0.2-1,0.6l0,0.1v0.7l0.1,0.1c0.4,0.4,0.8,0.6,1.4,0.5c0.8-0.1,1.5-0.2,2.2-0.2
	c0.9,0,1.7-0.3,2.4-0.8c0.6-0.4,0.9-1,1-1.6c0.1-0.5,0-1.1,0-1.6l0-0.3c0-0.9-0.1-1.7-0.1-2.6c0-0.8-0.1-1.7-0.1-2.5
	c0-1.7-0.1-3.4-0.1-5.1c0-1.4,0-2.7-0.1-4.1c0-0.8,0-1.5,0-2.3c0-1.6,0-3.1-0.1-4.7c0-0.7-0.1-1.5-0.3-2.3c-0.2-0.7-0.4-1.4-0.6-2.1
	l-0.2-0.7c0-0.1,0-0.2,0-0.3c0-0.1,0.1-0.1,0.2-0.1c0.6-0.2,1.2-0.1,1.8,0.1c2.4,0.9,4.5,2.2,6.3,3.8c2,1.7,3.4,3.4,4.4,5.2
	c1.1,2,2,4.1,2.5,6.6c0.3,1.4,0.5,2.9,0.6,4.2l0.1,0.8c0.1,1.3,0.3,2.7,0.3,4.1c0,0.8,0.1,1.6,0.1,2.4l0,0.9c0,0.3,0,0.6,0,0.9
	c0,0.3,0,0.5,0,0.8c0,0.8,0.7,1.9,1.9,1.9l0.4,0c0.2,0,0.3,0,0.5,0c0.2,0,0.4,0,0.6,0c0.8-0.1,1.6-0.2,2.4-0.3
	c0.3-0.1,0.6-0.3,0.6-0.6c0.1-0.3,0-0.6-0.2-0.8c-0.3-0.2-0.6-0.4-0.8-0.6c-0.4-0.3-0.6-0.6-0.6-1.1c0-0.8-0.1-1.7-0.1-2.5
	c0-0.6,0-1.2-0.1-1.8c0-0.5,0-1.1-0.1-1.6c0-0.7-0.1-1.5-0.1-2.2c0-1.3-0.1-2.5-0.1-3.8l0-0.9c0-1.7-0.1-3.3-0.1-5c0-1.7,0-3.3,0-5
	c0-0.9,0-1.8,0-2.8C242.4,186.9,242.6,185.9,242.9,184.8z"/>
<path class="st0" d="M35.9,179.9L35.9,179.9l-0.7-0.1l-0.1,0c-0.3,0.1-0.5,0.3-0.6,0.4l-0.1,0.1c-0.7,0.6-1.6,1.2-2.6,1.6
	c-2.1,0.7-4.5,1.1-7.1,1.2c-0.8,0-1.6,0-2.6-0.1c-1.4-0.1-2.6-0.4-3.7-0.7c-0.4-0.1-0.7-0.2-1.1-0.3c-0.8-0.2-1.6-0.5-2.4-0.6
	c-1.5-0.3-3-0.6-4.6-0.4c-2,0.2-3.9,0.9-5.5,2.1c-0.3,0.2-0.5,0.5-0.5,0.8v0.7l0,0.1c0,0.1,0.1,0.2,0.1,0.2c0.1,0.1,0.1,0.2,0.2,0.4
	c0.4,0.5,0.7,1.2,0.9,2c0.2,0.7,0.7,1,1,1c0.7,0.1,1.3-0.1,1.6-0.6c0.4-0.7,1-1.3,1.7-1.8c1.5-1,3.2-1.6,4.9-1.6c0.5,0,1,0,1.4,0.1
	c0.1,0,0.2,0,0.4,0.1c0.4,0.1,0.7,0.1,1,0.2c1,0.4,2.1,0.7,3.1,1c0.2,0,0.4,0.1,0.6,0.1c0.1,0,0.3,0,0.4,0.1c0,0,0,0,0,0
	c-0.1,0.1-0.1,0.1-0.2,0.2c-0.7,0.7-1.6,1.4-2.4,2.2c-0.1,0-0.1,0.1-0.2,0.1c-0.2,0.2-0.4,0.3-0.6,0.6c-0.3,0.5-0.5,1.1-0.4,1.8
	c0,0.5,0,1.1,0,1.6c0,0.6,0,1.1,0,1.7c0,0.5,0,1.1,0,1.6c0,0.5,0,1.1,0,1.7c0,0.5,0,1.1,0,1.6c0,0.5,0,1,0,1.6c0,0.6,0,1.2,0,1.8
	c0,0.7,0,1.3,0,2c0,0.5,0,0.9,0,1.4c0,0.4,0,0.9,0,1.3c0,0.5,0,1.1,0,1.7c0,0.6,0,1.2,0,1.8c0,0.3,0,0.7,0,1.1l0,0.2
	c0,0.7,0.1,1.3,0.3,1.8c0.1,0.3,0.1,0.5,0.1,0.6c0,0.5-0.3,0.8-0.6,1.1c-0.2,0.2-0.4,0.5-0.3,0.7c0,0.3,0.2,0.5,0.5,0.6
	c0.4,0.2,0.9,0.3,1.4,0.3c0,0,0.1,0,0.1,0c0.9,0,1.8-0.3,2.6-0.9c1.2-0.9,1.3-2.4,0.8-3.5c-0.3-0.7-0.5-1.5-0.6-2.4
	c0-0.4,0-0.9,0-1.3c0-0.5,0-0.9,0-1.4c0-0.7,0-1.4,0-2.1c0-0.5,0-0.9,0-1.4c0-1.2,0-2.5,0-3.6c0-0.9,0-1.9,0-2.8c0-1.5,0-3.1,0-4.6
	c0-0.6,0-1.3,0-1.9c0-0.5,0.2-0.9,0.6-1.2c1.5-1.2,3.1-2.3,4.6-3.2c0.3-0.2,0.7-0.3,1.1-0.3c0,0,0,0,0,0l0.2,0c1.2,0,2.5,0,3.8-0.2
	c1.2-0.3,2.2-0.6,3-1.1c0.7-0.5,1.2-1.3,1.3-2.3C37,181.4,36.6,180.5,35.9,179.9z"/>
<path class="st0" d="M69.3,213.8c-0.4,0-0.6-0.1-0.9-0.3c-0.7-0.6-1.1-1.3-1.3-2.2c-0.2-1-0.2-2.1-0.2-3.1l0-0.5c0-2.2,0-4.3,0-6.5
	c0-1.2,0-2.4,0-3.6l0-1.2c0-1.7,0-3.5,0-5.2c0-1.3,0-2.5,0-3.7c0-0.8,0-1.6-0.1-2.4l0-0.5c0-1,0.2-1.4,1.2-1.7
	c0.2,0,0.3-0.1,0.5-0.2c0.3-0.1,0.5-0.3,0.5-0.6c0-0.3-0.1-0.5-0.3-0.7c-0.2-0.2-0.5-0.3-0.8-0.3c-1.2,0-2.3-0.2-3.2-0.6
	c-0.7-0.3-1.2-0.2-1.7,0.3c-0.2,0.2-0.4,0.5-0.7,0.7c-0.1,0.1-0.3,0.3-0.4,0.4c-0.4,0.4-0.3,0.8-0.2,1l0.1,0.2
	c0.1,0.3,0.2,0.5,0.2,0.8c0.1,0.8,0.1,1.5,0.1,2.3l0,0.6c0,0.2,0,0.3,0,0.5c0,0.2,0,0.4,0,0.7c0,0,0,0-0.1,0c-0.2,0-0.5,0-0.7,0
	c-0.3,0-0.6,0-0.9,0.1c-2,0.4-4.2,1-6.3,2.1c-2,1.1-3.8,2.1-5.4,3.6c-0.2,0.2-0.5,0.5-0.7,0.7l-0.5,0.5c0-0.1,0-0.2,0-0.2
	c0-0.1,0-0.3,0-0.4c0-1.8-0.1-3.7-0.2-5.3c0-0.8-0.1-1.7-0.6-2.4c0,0-0.1-0.1,0-0.2c0.1-0.1,0.1-0.1,0.2-0.2c0.1,0,0.1-0.1,0.2-0.2
	l0.1-0.1c0.3-0.3,0.7-0.7,0.6-1.3c-0.1-0.5-0.2-0.8-0.5-1.2c-0.4-0.6-0.9-1.1-1.4-1.6l-0.1-0.1c-0.6-0.6-1.3-0.9-2-0.8
	c-0.1,0-0.1,0-0.2,0c-0.1,0-0.1,0-0.2,0c-0.2,0-0.3,0-0.5,0c-0.7,0-1.2,0.1-2,0.4c-0.2,0.1-0.3,0.2-0.3,0.4c-0.1,0.2-0.1,0.6,0,0.8
	c0.4,0.5,0.5,0.7,1,1l0.1,0.1c0.4,0.3,0.5,0.5,0.3,0.9c-0.2,0.4-0.2,0.7-0.1,1c0,0.1,0,0.3,0.1,0.4c0.1,0.4,0.1,0.7,0.2,1.1
	c0,0.6,0.1,1.3,0.1,1.9c0.1,0.7,0.1,1.4,0.1,2.1c0,0.8,0.1,1.7,0.1,2.5c0.1,1,0.1,2.1,0.1,3.1c0,3.7,0,7.7-0.3,11.7
	c-0.1,1.7-0.4,3.3-0.9,4.9c-0.1,0.4-0.4,0.7-0.8,0.9c-0.2,0.1-0.5,0.2-0.7,0.5l0,0.1v0.4l0.1,0.1c0,0,0.1,0.1,0.1,0.1
	c0.1,0.1,0.3,0.3,0.5,0.4c0.9,0.2,1.6,0.5,2.3,0.8c0.4,0.2,0.8,0.2,1.2,0c0.5-0.3,1-0.6,1.4-0.9c0.8-0.6,1.1-1.4,0.9-2.4l0-0.3
	c-0.2-0.9-0.3-1.8-0.3-2.7c0-0.6,0.1-1.3,0.1-1.9c0-0.6,0-1.1,0.1-1.7l0-0.2c0-0.5,0-0.9,0.2-1.3c0.8-2.2,1.9-4.4,3.3-6.4
	c1.7-2.5,3.8-4.2,6.2-5.5c1.3-0.6,2.9-1.3,4.7-1.1c0.8,0.1,1.2,0.4,1.4,1.1c0,0.2,0.1,0.5,0.1,0.8c0.1,3,0.1,6.3,0,10.1
	c0,0.8,0,1.6,0,2.3c0,2.2,0,4.6-0.1,6.8c0,0.4-0.1,1,0.3,1.4c0.4,0.6,0.9,1.1,1.4,1.6c0.6,0.5,0.9,0.7,1.3,0.7
	c0.3,0,0.7-0.2,1.2-0.4l0.3-0.1c0.8-0.4,1.6-0.8,2.5-1c0.4-0.1,0.7-0.3,0.9-0.7c0.1-0.1,0.2-0.3,0-0.6
	C69.7,213.8,69.5,213.8,69.3,213.8z"/>
<path class="st0" d="M172.7,188.1c-1-1.9-2.3-3.5-3.8-4.8c-1.3-1.1-2.6-1.9-4.1-2.4c-0.7-0.2-1.4-0.4-2.2-0.4l-2.2,0
	c-0.2,0-0.3,0-0.5,0c-0.2,0-0.5,0-0.7,0.1c-2.1,0.5-4,1.5-5.7,3.1c-1.7,1.6-2.9,3.4-4,5.7c-0.9,2-1.4,4.1-1.7,6.3c0,0.2,0,0.5,0,0.7
	c0,0.2,0,0.5,0,0.8l0,3.3c0,0.2,0,0.4,0,0.6s0,0.4,0,0.6c0.3,2.8,1.1,5.4,2.4,7.8c1.1,2.1,2.6,3.8,4.3,5.2c2.1,1.6,4.4,2.4,6.9,2.4
	c0.4,0,0.7,0,1.1,0c1.8-0.2,3.5-0.8,5.2-2c1.5-1,2.8-2.4,4-4.1c1.1-1.7,2-3.6,2.6-5.8c0.4-1.4,0.6-2.6,0.7-3.9
	c0.1-1,0.1-2.1,0.1-3.1V198c0-1.3-0.1-2.6-0.4-3.9C174.3,191.9,173.6,189.9,172.7,188.1z M159.2,213.4c-1.2-0.5-2.3-1.3-3.3-2.5
	c-1.4-1.7-2.3-3.7-3-6.2c-0.2-0.9-0.4-1.9-0.6-3c-0.1-0.5-0.1-0.9-0.1-1.4l0-0.6c0-0.3,0-0.6,0-0.9l0-0.2c0.1-1.1,0.1-2.3,0.3-3.5
	c0.4-2.3,1-4.2,1.9-5.9c1.1-2.1,2.4-3.4,4-4.4c0.8-0.4,1.6-0.7,2.5-0.8c0.2,0,0.4,0,0.7,0c1.4,0,2.7,0.5,4,1.5c1.1,0.8,2,2,2.9,3.5
	c0.8,1.5,1.4,3.2,1.9,5.2c0.2,0.7,0.2,1.5,0.3,2.2c0.1,0.8,0.1,1.5,0.1,2.6c0.1,0.6,0,1.4-0.1,2v0c-0.2,2.1-0.6,3.9-1.3,5.7
	c-0.8,2.1-1.8,3.7-3.1,5c-1.2,1.2-2.5,1.9-3.9,2.1C161.3,213.9,160.2,213.8,159.2,213.4z"/>
<path class="st0" d="M142.3,180.6c-0.3-0.2-0.6-0.2-1,0c-0.3,0.2-0.7,0.3-1.1,0.4c-0.9,0.3-1.8,0.5-2.8,0.5c0,0,0,0-0.1,0
	c-0.8,0-1.5,0.6-1.5,1.4c0,0.4,0,0.8,0,1.2l0,0.6c0,0.4,0,0.7,0.1,1.1c0,0.4,0.1,0.8,0.1,1.3c0,1.6,0,3.4-0.1,5.2
	c0,0.6-0.1,1.3-0.1,1.9c0,0.6-0.1,1.3-0.1,1.9c0,0.9-0.2,1.8-0.3,2.6c-0.3,1.4-0.6,2.7-1.1,4c0,0.1-0.1,0.2-0.1,0.4
	c-0.1,0.2-0.1,0.4-0.2,0.6c-0.5,0.9-1.1,1.9-1.9,2.8c-0.9,1.1-1.9,2-3,2.8c-1.3,1-2.8,1.7-4.5,2.3c-0.5,0.2-1,0.3-1.5,0.4
	c-0.2,0-0.4,0.1-0.5,0.1c-0.1,0-0.1,0-0.2,0c0,0,0,0,0-0.1c0.1-0.3,0.2-0.5,0.3-0.8c0.5-1.2,0.5-2.5,0.5-3.6l0-1.4
	c0-2.4,0.1-4.9,0.1-7.3c0-0.8,0-1.6,0-2.4c0-1.7,0.1-3.4,0-5.1c0-0.6,0-1.2,0-1.8c0-0.5,0-1.1,0-1.6c0-0.5,0-1,0-1.5
	c0-0.6,0-1.3-0.1-1.9c0-0.4,0.1-0.7,0.4-1.1c0.1-0.1,0.2-0.2,0.2-0.3l0.1-0.1c0.3-0.4,0.3-0.8,0-1.1c-0.3-0.3-0.6-0.5-1-0.6
	c-0.2,0-0.4-0.1-0.6-0.1c-0.4-0.1-0.8-0.1-1.2-0.2c-0.2,0-0.3-0.1-0.5-0.1c-0.4-0.1-0.8-0.2-1.2-0.3c-0.5,0-1,0-1.4,0.2
	c-0.3,0.1-0.5,0.2-0.8,0.3c-0.5,0.2-1.1,0.4-1.7,0.6c-0.2,0-0.3,0.2-0.4,0.3l0,0.1l0,0.4l0,0.1c0.2,0.3,0.5,0.3,0.6,0.3
	c0.7,0.1,1.4,0.3,2.1,0.6l0.1,0c0.5,0.2,0.7,0.5,0.7,1.1l0,0.4c0,1,0,2,0.1,2.9c0,0.3,0,0.5,0,0.8c0,0.4,0,0.9,0,1.3
	c0,0.5,0,1,0,1.5c0,0.4,0,0.9,0,1.3c0,0.5,0,1,0,1.5c0,0.3,0,0.6,0,0.9c0,1,0,2,0,3.1c0,1,0,2,0,2.9c0,1.1,0,2.2,0,3.2
	c0,1.1,0,2.3,0,3.4c0,0.6,0,1.3,0,1.9c0,0.8-0.1,1.5-0.2,2.1c-0.1,0.7-0.5,1.1-1.1,1.2c-0.8,0.2-1.5,0.6-2,1.1
	c-0.1,0.1-0.2,0.3-0.2,0.6c0,0.6,0.7,1.7,1.3,1.8c0.1,0,0.1,0,0.2,0.1c0.1,0.1,0.3,0.1,0.5,0.1c0,0,0.1,0,0.1,0c0.2,0,0.3,0,0.5-0.1
	c0.3,0,0.7-0.1,1-0.1c0.7,0,1.5-0.1,2.3-0.3c1.7-0.3,3.2-0.7,4.7-1.2c1.6-0.5,3.5-1.2,5.2-2.3c1.2-0.7,2.4-1.6,3.4-2.6
	c0.6-0.6,1.2-1.3,1.8-2c0.9-1.1,1.6-2.4,2.2-3.8c0.5-1.1,0.8-2.3,1-3.5l0-0.2c0.1-0.4,0.1-0.8,0.2-1.1c0.1-0.4,0.1-0.7,0.2-1.1
	c0.1-0.5,0.2-0.9,0.3-1.4c0-0.2,0.1-0.4,0.1-0.7c0.1-0.5,0.1-1,0.2-1.5c0.1-0.8,0.2-1.5,0.3-2.3l0.1-0.7c0.1-1,0.2-1.9,0.2-2.8
	c0-0.3,0-0.6,0-1c0-0.6,0.1-1.3,0-2l0-0.2c0-0.5,0-1,0-1.4c0.1-0.9,0.5-1.5,1.3-1.9c0.1,0,0.1-0.1,0.2-0.1c0.2-0.1,0.4-0.2,0.6-0.4
	c0.1-0.1,0.3-0.3,0.3-0.5c0-0.2-0.1-0.4-0.2-0.5C142.9,181,142.6,180.8,142.3,180.6z"/>
<path class="st0" d="M208.6,213.8c-0.8,0.2-2-0.3-2.3-1.3c-0.2-0.5-0.2-1.1-0.3-1.6c0-0.3,0-0.6-0.1-0.9c0-0.3-0.1-0.6-0.1-0.9
	c0-0.2,0-0.4,0-0.6c0-0.4-0.1-0.8-0.1-1.1c0-0.3-0.1-0.6-0.1-1c0-0.2,0-0.4-0.1-0.7c0-0.4-0.1-0.8-0.1-1.3c-0.2-0.9-0.4-1.8-0.8-2.6
	c-0.7-1.5-1.7-2.4-2.9-3c-0.1,0-0.2-0.1-0.3-0.1c1-0.3,1.9-0.8,2.6-1.4c1.6-1.3,2.5-3.2,2.7-5.4c0-0.7,0-1.6-0.2-2.5
	c-0.3-1.2-0.7-2.1-1.2-2.9c-0.7-1-1.6-1.9-2.6-2.7c-1.2-1-2.7-1.7-4.2-2.1c-1.3-0.4-2.4-0.6-3.6-0.8l-0.3,0
	c-0.8-0.1-1.6-0.2-2.4-0.3c0,0,0,0,0,0l0-0.1l-3.7,0c-0.2,0-0.4,0-0.6,0c-0.1,0-0.2,0-0.3,0c-1.8,0.1-3.6,0.5-4.9,0.8
	c-0.6,0.2-0.8,0.6-0.8,0.9v0.2l0,0.1c0.2,0.5,0.6,0.7,0.9,0.7c0.5,0.1,1.3,0.8,1.3,1.6c0,0.4,0,0.8,0.1,1.1c0,0.3,0.1,0.6,0.1,0.9
	c0,0.4,0.1,0.8,0.1,1.2c0.1,0.7,0.1,1.4,0.1,2.1c0,0.1,0,0.2,0,0.3c0,0.4,0.1,0.8,0.1,1.2c0,0.2,0,0.4,0,0.7c0,0.2,0,0.4,0,0.6
	c0,0.4,0.1,0.7,0,1c0,0.4,0,0.7,0,1.1c0,0.4,0,0.7,0,1l0,0.1c0,0.1,0,0.2,0,0.3c0,0.2,0,0.5,0,0.7c0,0.5,0,0.9,0,1.4l0,0.3
	c0,0.4,0,0.7,0,1.1c0,0.5,0,0.9,0,1.4c0,0.4,0,0.8,0,1.3c0,0.7,0,1.3,0,2c0,0.7,0,1.4,0,2.2c0,0.3,0,0.7,0,1l0,0.5
	c0,0.6,0,1.2,0,1.8c0,0.6,0,1.1,0,1.7c0,0.4,0,0.9-0.1,1.4c-0.2,1-0.6,1.9-1.5,2.6c-0.3,0.2-0.4,0.5-0.2,0.8
	c0.1,0.3,0.4,0.4,0.6,0.4c0.1,0,0.1,0,0.2,0c0.8,0,1.5-0.2,2.2-0.5c2.1-0.7,3.5-2.6,3.5-4.8c0-0.5,0-0.9,0-1.4c0-0.5,0-0.9,0-1.4
	l0-1.1c0-0.9,0.1-1.9,0.1-2.8c0-0.3,0-0.6,0-0.8c0-0.3,0-0.6,0-0.9c0-0.3,0-0.5,0-0.8c0-0.6,0-1.2,0-1.8c0-0.3,0-0.7,0-1
	c0-0.4,0-0.9,0-1.3c0-0.3,0-0.7,0-1c0-0.3,0-0.6,0-0.9c0-0.5,0-1,0-1.6c0-0.4,0-0.8,0-1.2c0-0.3,0-0.5,0-0.8c0-0.1,0-0.2,0-0.4
	c0-0.2,0-0.4,0-0.7c0-0.5,0-0.9,0-1.4c0-0.4,0-0.8,0-1.2l0-0.4c0-0.5-0.1-0.9,0-1.4c0-0.3,0-0.7-0.1-1c-0.1-0.8-0.4-1.5-0.9-2.2
	c0-0.1,0-0.1,0-0.2c0,0,0.1-0.1,0.1-0.1l0.1,0c0.5,0,1-0.1,1.5-0.1c0.6,0,1.2,0,1.7,0c0.9,0.1,1.6,0.1,2.3,0.3
	c1.3,0.2,2.6,0.6,3.9,1.1c2,0.8,3.3,2.2,4,4.3c0.2,0.7,0.3,1.4,0.3,2c-0.1,0.8-0.3,1.7-0.6,2.6c-0.5,1.2-1.6,2-2.9,2
	c-1.3,0-2.5,0-3.8,0c0,0,0,0,0,0c-0.6,0-1.1,0.3-1.4,0.8c-0.1,0.1-0.1,0.2-0.2,0.3l-0.5,0.7c-0.4,0.5-0.8,1-1.1,1.6
	c-0.3,0.4-0.2,0.9,0.1,1.1c0.4,0.4,0.8,0,1-0.1l0.1-0.1c0.1-0.1,0.1-0.1,0.2-0.1c0.2-0.2,0.4-0.2,0.6-0.2c0.6,0,1.1,0,1.7,0l0.2,0
	c0.6,0,1.1,0,1.6,0.1c1.4,0.3,2.4,1.1,3,2.3c0.5,1.1,0.8,2.2,1,3.6c0.2,1.1,0.3,2.1,0.3,2.9c0,1.1,0.1,2.2,0,3.3
	c-0.1,0.5-0.1,1.1,0.1,1.6c0.6,1.9,2.2,2.8,4.4,2.5c0.3,0,0.7-0.1,1-0.2c0.4-0.1,0.7-0.2,1.1-0.2c1-0.1,1.6-0.7,1.6-1.7
	c0-0.3-0.1-0.5-0.2-0.6C209.1,213.8,208.8,213.7,208.6,213.8z"/>
<g>
	<path class="st0" d="M18.8,233.8c0.4-0.3,0.8-0.7,1.1-1.1c0.3-0.5,0.5-1.1,0.5-1.8c0-0.9-0.3-1.5-1-2c-0.7-0.4-1.4-0.7-2.3-0.7
		c-0.9,0-1.7,0-2.6,0.1l-0.1,0v11.7l0.1,0c1,0.1,2.1,0.1,3.2,0.1c1.1,0,2-0.3,2.7-0.8c0.7-0.5,1-1.4,1-2.4c0-0.7-0.3-1.4-0.8-2
		C20.1,234.4,19.5,234,18.8,233.8z M17.8,239.3c-1.1,0-1.9,0-2.4-0.1v-5h1c0.5,0,1,0,1.4,0.1c0.8,0.2,1.5,0.5,2,1
		c0.5,0.5,0.7,1.1,0.7,1.7c0,0.7-0.2,1.2-0.7,1.6C19.2,239.1,18.6,239.3,17.8,239.3z M17.8,233.5c-0.7-0.1-1.3-0.1-1.7-0.1h-0.7
		v-4.3c0.6,0,1.2-0.1,1.8-0.1c0.6,0,1.1,0.2,1.6,0.5c0.5,0.3,0.7,0.7,0.7,1.3c0,0.6-0.2,1.1-0.5,1.6
		C18.7,232.9,18.3,233.2,17.8,233.5z"/>
	<polygon class="st0" points="27.3,234.1 31.5,234.1 31.5,233.3 27.3,233.3 27.3,229.2 31.9,229.2 31.9,228.3 26.4,228.3 
		26.4,240.1 32.1,240.1 32.1,239.2 27.3,239.2 	"/>
	<path class="st0" d="M40.7,228.2h-0.6l-5,11.9h1l1.7-4h5.1l1.7,4h1.1L40.7,228.2L40.7,228.2z M42.6,235.2h-4.4l1.7-4.2
		c0.1-0.3,0.3-0.7,0.4-1.1c0.1,0.2,0.2,0.5,0.5,1.1L42.6,235.2z"/>
	<path class="st0" d="M58.3,238.8c-0.9,0.4-2,0.6-3.3,0.6c-1.4,0-2.7-0.5-3.7-1.5c-1-1-1.5-2.3-1.5-3.7c0-1.4,0.4-2.7,1.3-3.7
		c0.9-1,2-1.5,3.4-1.5c1.2,0,2.4,0.2,3.7,0.6l0.1,0l0.3-0.8l-0.1,0c-1.3-0.4-2.7-0.7-4-0.7c-1.7,0-3.1,0.6-4.1,1.8
		c-1.1,1.2-1.6,2.6-1.6,4.3c0,1.7,0.6,3.2,1.8,4.3c1.2,1.2,2.7,1.8,4.4,1.8c0.6,0,1.3-0.1,2-0.2c0.7-0.1,1.2-0.3,1.6-0.6l0.1,0
		L58.3,238.8L58.3,238.8z"/>
	<polygon class="st0" points="72.6,233.4 64.8,233.4 64.8,228.3 63.8,228.3 63.8,240.1 64.8,240.1 64.8,234.3 72.6,234.3 
		72.6,240.1 73.5,240.1 73.5,228.3 72.6,228.3 	"/>
	<path class="st0" d="M93.4,237.6c-0.2,0.4-0.3,0.7-0.4,1c-0.1-0.3-0.2-0.6-0.4-1.1l-3.9-9.3h-1.1l5.1,11.8l0,0.1h0.6l5.1-11.9h-1
		L93.4,237.6z"/>
	<rect x="102.6" y="228.3" class="st0" width="1" height="11.8"/>
	<polygon class="st0" points="110.7,228.3 109.7,228.3 109.7,240.1 116,240.1 116,239.2 110.7,239.2 	"/>
	<polygon class="st0" points="120.5,228.3 119.6,228.3 119.6,240.1 125.9,240.1 125.9,239.2 120.5,239.2 	"/>
	<path class="st0" d="M133.9,228.2h-0.6l-5,11.9h1l1.7-4h5.1l1.7,4h1.1L133.9,228.2L133.9,228.2z M135.7,235.2h-4.4l1.7-4.2
		c0.1-0.3,0.3-0.7,0.4-1.1c0.1,0.2,0.2,0.5,0.5,1.1L135.7,235.2z"/>
	<path class="st0" d="M150.6,238.9c-0.8,0.3-1.8,0.5-3,0.5c-1.4,0-2.7-0.5-3.7-1.5c-1-1-1.5-2.2-1.5-3.7c0-1.4,0.4-2.7,1.3-3.7
		c0.9-1,2-1.5,3.4-1.5c1.2,0,2.4,0.2,3.7,0.6l0.1,0l0.3-0.8l-0.1,0c-1.3-0.4-2.7-0.7-4-0.7c-1.7,0-3.1,0.6-4.1,1.8
		c-1.1,1.2-1.6,2.6-1.6,4.3c0,1.7,0.6,3.2,1.8,4.3c1.2,1.2,2.6,1.8,4.4,1.8c1.7,0,3.1-0.3,4-0.9l0,0v-5.3h-1V238.9z"/>
	<polygon class="st0" points="157.5,234.1 161.7,234.1 161.7,233.3 157.5,233.3 157.5,229.2 162.1,229.2 162.1,228.3 156.5,228.3 
		156.5,240.1 162.3,240.1 162.3,239.2 157.5,239.2 	"/>
	<path class="st0" d="M185.6,238.4c-0.2-0.2-0.6-0.7-1.1-1.4c-0.6-0.7-1-1.4-1.4-1.9c0.5-0.4,0.9-0.8,1.3-1.4c0.4-0.6,0.6-1.3,0.6-2
		c0-1.1-0.4-1.9-1.1-2.5c-0.7-0.6-1.7-0.9-2.8-0.9c-0.7,0-1.6,0-2.6,0.1l-0.1,0v11.7h1v-4.8c0.8,0.1,1.8,0.1,2.8,0.1
		c1.5,2,2.4,3.2,2.8,3.6c0.4,0.4,0.8,0.7,1.2,0.9c0.4,0.2,1,0.3,1.6,0.3l0.1,0l0-0.7l-0.1,0C187,239.4,186.3,239.1,185.6,238.4z
		 M179.4,229.2c0.6,0,1.2-0.1,1.6-0.1c0.9,0,1.6,0.2,2.2,0.6c0.5,0.4,0.8,1,0.8,1.8c0,0.8-0.3,1.5-0.8,2.1c-0.5,0.6-1,0.9-1.5,0.9
		c-0.7,0-1.5,0-2.3-0.1V229.2z"/>
	<polygon class="st0" points="191.8,234.1 196,234.1 196,233.3 191.8,233.3 191.8,229.2 196.4,229.2 196.4,228.3 190.8,228.3 
		190.8,240.1 196.6,240.1 196.6,239.2 191.8,239.2 	"/>
	<path class="st0" d="M205.3,234.2c-0.5-0.4-1-0.7-1.5-1c-0.5-0.3-0.9-0.7-1.3-1.2c-0.3-0.4-0.5-0.9-0.5-1.4c0-1.1,0.7-1.7,2.3-1.7
		c0.8,0,1.5,0.2,2.3,0.5l0.1,0l0.3-0.8l-0.1,0c-0.8-0.4-1.8-0.6-2.7-0.6c-1,0-1.8,0.2-2.4,0.7c-0.6,0.5-0.9,1.1-0.9,1.9
		c0,0.6,0.2,1.2,0.6,1.7c0.4,0.5,0.8,1,1.3,1.3c0.5,0.4,1,0.7,1.5,1.1c0.5,0.3,0.9,0.7,1.3,1.2c0.3,0.4,0.5,0.9,0.5,1.3
		c0,0.7-0.2,1.2-0.7,1.5c-0.5,0.4-1.2,0.5-2.1,0.5c-0.9,0-1.8-0.3-2.5-0.7l-0.1-0.1l-0.5,0.7l0.1,0.1c0.8,0.6,1.9,0.9,3,0.9
		c1.2,0,2.1-0.3,2.8-0.8c0.7-0.5,1-1.3,1-2.3c0-0.6-0.2-1.2-0.6-1.7C206.3,235,205.9,234.6,205.3,234.2z"/>
	<path class="st0" d="M216.5,228.1c-1.7,0-3.1,0.6-4.2,1.8c-1.1,1.2-1.6,2.6-1.6,4.3c0,1.7,0.6,3.2,1.6,4.3c1.1,1.2,2.5,1.8,4.2,1.8
		c1.7,0,3.1-0.6,4.2-1.8c1.1-1.2,1.6-2.6,1.6-4.3c0-1.7-0.6-3.2-1.7-4.3C219.6,228.7,218.2,228.1,216.5,228.1z M216.5,239.4
		c-1.4,0-2.6-0.5-3.4-1.5c-0.9-1-1.3-2.2-1.3-3.7c0-1.5,0.4-2.7,1.3-3.7c0.9-1,2-1.5,3.4-1.5s2.6,0.5,3.4,1.5c0.9,1,1.3,2.2,1.3,3.7
		c0,1.5-0.4,2.7-1.3,3.7C219.1,238.9,217.9,239.4,216.5,239.4z"/>
	<path class="st0" d="M233.9,238.4c-0.2-0.2-0.6-0.7-1.1-1.4c-0.6-0.7-1-1.4-1.4-1.9c0.5-0.4,0.9-0.8,1.3-1.4c0.4-0.6,0.6-1.3,0.6-2
		c0-1.1-0.4-1.9-1.1-2.5c-0.7-0.6-1.7-0.9-2.8-0.9c-0.7,0-1.6,0-2.6,0.1l-0.1,0v11.7h1v-4.8c0.8,0.1,1.8,0.1,2.8,0.1
		c1.5,2,2.4,3.2,2.8,3.6c0.4,0.4,0.8,0.7,1.2,0.9c0.4,0.2,1,0.3,1.6,0.3l0.1,0l0-0.7l-0.1,0C235.3,239.4,234.6,239.1,233.9,238.4z
		 M227.7,229.2c0.6,0,1.2-0.1,1.6-0.1c0.9,0,1.6,0.2,2.2,0.6c0.5,0.4,0.8,1,0.8,1.8c0,0.8-0.3,1.5-0.8,2.1c-0.5,0.6-1,0.9-1.5,0.9
		c-0.7,0-1.5,0-2.3-0.1V229.2z"/>
	<polygon class="st0" points="236.9,228.3 236.9,229.2 240.8,229.2 240.8,240.1 241.8,240.1 241.8,229.2 245.7,229.2 245.7,228.3 	
		"/>
</g>
</svg>
